<svg width="399" height="92" viewBox="0 0 399 92" fill="none" xmlns="http://www.w3.org/2000/svg">
<path d="M176.12 69V39.42C176.12 37.1 176.68 35 177.8 33.12C178.96 31.24 180.5 29.76 182.42 28.68C184.38 27.56 186.56 27 188.96 27H204.62V35.4H190.22C189.1 35.4 188.14 35.8 187.34 36.6C186.58 37.4 186.2 38.38 186.2 39.54V45.6H202.58V53.94H186.2V69H176.12ZM207.478 69V25.2H216.778V69H207.478ZM236.49 69.72C233.33 69.72 230.49 69.02 227.97 67.62C225.45 66.22 223.45 64.3 221.97 61.86C220.53 59.42 219.81 56.68 219.81 53.64C219.81 50.56 220.53 47.82 221.97 45.42C223.45 42.98 225.45 41.06 227.97 39.66C230.49 38.22 233.33 37.5 236.49 37.5C239.65 37.5 242.47 38.22 244.95 39.66C247.47 41.06 249.45 42.98 250.89 45.42C252.37 47.82 253.11 50.56 253.11 53.64C253.11 56.68 252.37 59.42 250.89 61.86C249.45 64.3 247.47 66.22 244.95 67.62C242.43 69.02 239.61 69.72 236.49 69.72ZM236.49 61.62C237.97 61.62 239.25 61.26 240.33 60.54C241.41 59.82 242.25 58.86 242.85 57.66C243.45 56.46 243.75 55.1 243.75 53.58C243.75 52.1 243.45 50.76 242.85 49.56C242.25 48.36 241.41 47.4 240.33 46.68C239.25 45.96 237.97 45.6 236.49 45.6C235.01 45.6 233.71 45.96 232.59 46.68C231.51 47.4 230.67 48.36 230.07 49.56C229.47 50.76 229.17 52.1 229.17 53.58C229.17 55.1 229.47 56.46 230.07 57.66C230.67 58.86 231.51 59.82 232.59 60.54C233.71 61.26 235.01 61.62 236.49 61.62ZM268.173 69.72C266.053 69.72 264.073 69.3 262.233 68.46C260.433 67.62 258.973 66.34 257.853 64.62C256.773 62.9 256.233 60.74 256.233 58.14V38.22H265.533V59.34C265.533 59.82 265.653 60.26 265.893 60.66C266.133 61.06 266.453 61.38 266.853 61.62C267.253 61.86 267.693 61.98 268.173 61.98C268.653 61.98 269.093 61.86 269.493 61.62C269.893 61.38 270.213 61.06 270.453 60.66C270.693 60.26 270.813 59.82 270.813 59.34V49.08C270.813 46.6 271.333 44.5 272.373 42.78C273.413 41.06 274.833 39.76 276.633 38.88C278.473 37.96 280.533 37.5 282.813 37.5C285.093 37.5 287.133 37.96 288.933 38.88C290.733 39.76 292.153 41.06 293.193 42.78C294.233 44.5 294.753 46.6 294.753 49.08V59.34C294.753 59.82 294.873 60.26 295.113 60.66C295.353 61.06 295.673 61.38 296.073 61.62C296.513 61.86 296.973 61.98 297.453 61.98C297.933 61.98 298.373 61.86 298.773 61.62C299.173 61.38 299.493 61.06 299.733 60.66C299.973 60.26 300.093 59.82 300.093 59.34V38.22H309.393V58.14C309.393 60.74 308.833 62.9 307.713 64.62C306.633 66.34 305.173 67.62 303.333 68.46C301.533 69.3 299.573 69.72 297.453 69.72C295.333 69.72 293.353 69.3 291.513 68.46C289.713 67.62 288.253 66.34 287.133 64.62C286.013 62.9 285.453 60.74 285.453 58.14V47.94C285.453 47.42 285.333 46.96 285.093 46.56C284.853 46.16 284.533 45.84 284.133 45.6C283.733 45.36 283.293 45.24 282.813 45.24C282.333 45.24 281.873 45.36 281.433 45.6C281.033 45.84 280.713 46.16 280.473 46.56C280.233 46.96 280.113 47.42 280.113 47.94V58.14C280.113 60.74 279.553 62.9 278.433 64.62C277.353 66.34 275.893 67.62 274.053 68.46C272.253 69.3 270.293 69.72 268.173 69.72Z" fill="#858DE5"/>
<path d="M25.26 69C22.98 69 21 68.52 19.32 67.56C17.68 66.56 16.4 65.22 15.48 63.54C14.6 61.82 14.16 59.9 14.16 57.78V32.1H1.38V27H32.7V32.1H19.92V58.5C19.92 60.06 20.4 61.36 21.36 62.4C22.36 63.4 23.68 63.9 25.32 63.9H28.08V69H25.26ZM29.9227 69V47.1C29.9227 44.38 30.6827 42.26 32.2027 40.74C33.7627 39.18 35.9027 38.4 38.6227 38.4H44.9227V43.14H39.6427C38.3227 43.14 37.2827 43.52 36.5227 44.28C35.8027 45.04 35.4427 46.1 35.4427 47.46V69H29.9227ZM50.0245 69V38.4H55.6045V69H50.0245ZM52.8445 33.54C51.8445 33.54 50.9645 33.18 50.2045 32.46C49.4845 31.7 49.1245 30.82 49.1245 29.82C49.1245 28.82 49.4845 27.96 50.2045 27.24C50.9645 26.48 51.8445 26.1 52.8445 26.1C53.8445 26.1 54.7045 26.48 55.4245 27.24C56.1845 27.96 56.5645 28.82 56.5645 29.82C56.5645 30.82 56.1845 31.7 55.4245 32.46C54.7045 33.18 53.8445 33.54 52.8445 33.54ZM77.0414 69.72C74.0814 69.72 71.5214 69.02 69.3614 67.62C67.2014 66.18 65.5414 64.24 64.3814 61.8C63.2214 59.36 62.6414 56.66 62.6414 53.7C62.6414 50.7 63.2814 48 64.5614 45.6C65.8414 43.16 67.6814 41.24 70.0814 39.84C72.4814 38.4 75.3614 37.68 78.7214 37.68C81.9614 37.68 84.7414 38.38 87.0614 39.78C89.3814 41.18 91.1614 43.08 92.4014 45.48C93.6814 47.88 94.3214 50.56 94.3214 53.52V69H88.7414V62.76H88.6214C88.0214 63.92 87.2014 65.04 86.1614 66.12C85.1614 67.16 83.9014 68.02 82.3814 68.7C80.8614 69.38 79.0814 69.72 77.0414 69.72ZM78.4814 64.98C80.4814 64.98 82.2414 64.5 83.7614 63.54C85.3214 62.54 86.5214 61.18 87.3614 59.46C88.2414 57.7 88.6814 55.74 88.6814 53.58C88.6814 51.46 88.2614 49.56 87.4214 47.88C86.6214 46.2 85.4614 44.88 83.9414 43.92C82.4214 42.92 80.6414 42.42 78.6014 42.42C76.4414 42.42 74.5814 42.92 73.0214 43.92C71.5014 44.92 70.3214 46.28 69.4814 48C68.6814 49.68 68.2814 51.6 68.2814 53.76C68.2814 55.84 68.6814 57.74 69.4814 59.46C70.2814 61.14 71.4414 62.48 72.9614 63.48C74.4814 64.48 76.3214 64.98 78.4814 64.98ZM107.73 81.18V76.44H122.73C124.21 76.44 125.35 76 126.15 75.12C126.99 74.24 127.41 73.08 127.41 71.64V63.24H127.29C126.53 64.4 125.61 65.44 124.53 66.36C123.45 67.28 122.21 68.02 120.81 68.58C119.41 69.1 117.83 69.36 116.07 69.36C113.19 69.36 110.65 68.7 108.45 67.38C106.25 66.02 104.53 64.16 103.29 61.8C102.05 59.4 101.43 56.66 101.43 53.58C101.43 50.58 102.05 47.88 103.29 45.48C104.53 43.08 106.31 41.18 108.63 39.78C110.99 38.38 113.83 37.68 117.15 37.68C120.35 37.68 123.13 38.36 125.49 39.72C127.85 41.08 129.67 42.98 130.95 45.42C132.27 47.82 132.93 50.64 132.93 53.88V72C132.93 74.8 132.11 77.02 130.47 78.66C128.83 80.34 126.59 81.18 123.75 81.18H107.73ZM117.09 64.62C119.13 64.62 120.91 64.14 122.43 63.18C123.99 62.22 125.19 60.92 126.03 59.28C126.91 57.6 127.35 55.72 127.35 53.64C127.35 51.52 126.93 49.62 126.09 47.94C125.25 46.26 124.07 44.94 122.55 43.98C121.03 42.98 119.21 42.48 117.09 42.48C115.01 42.48 113.21 42.98 111.69 43.98C110.21 44.94 109.05 46.28 108.21 48C107.41 49.68 107.01 51.58 107.01 53.7C107.01 55.7 107.41 57.54 108.21 59.22C109.05 60.86 110.21 62.18 111.69 63.18C113.21 64.14 115.01 64.62 117.09 64.62ZM157.029 69C153.669 69 150.689 68.38 148.089 67.14C145.489 65.86 143.449 64.08 141.969 61.8C140.529 59.48 139.809 56.78 139.809 53.7C139.809 50.66 140.429 47.94 141.669 45.54C142.909 43.1 144.629 41.18 146.829 39.78C149.029 38.38 151.589 37.68 154.509 37.68C157.669 37.68 160.289 38.36 162.369 39.72C164.489 41.08 166.069 42.92 167.109 45.24C168.149 47.52 168.669 50.08 168.669 52.92C168.669 53.36 168.649 53.82 168.609 54.3C168.609 54.78 168.569 55.2 168.489 55.56H145.689C145.889 57.44 146.509 59.04 147.549 60.36C148.589 61.64 149.909 62.62 151.509 63.3C153.149 63.94 154.949 64.26 156.909 64.26H164.889V69H157.029ZM145.629 51.66H163.089C163.089 50.9 163.009 50.1 162.849 49.26C162.689 48.38 162.409 47.54 162.009 46.74C161.609 45.9 161.069 45.16 160.389 44.52C159.749 43.84 158.929 43.3 157.929 42.9C156.969 42.5 155.829 42.3 154.509 42.3C153.109 42.3 151.869 42.58 150.789 43.14C149.749 43.66 148.849 44.38 148.089 45.3C147.329 46.18 146.749 47.18 146.349 48.3C145.949 49.42 145.709 50.54 145.629 51.66Z" fill="white"/>
<path d="M365.97 24.3844C368.616 24.3994 371.06 25.7808 372.439 28.0247L372.569 28.2442L382.303 45.3264C383.655 47.6994 383.638 50.614 382.259 52.9714L372.332 69.9425C370.953 72.2999 368.422 73.7424 365.691 73.7269L346.029 73.6157C343.384 73.6005 340.94 72.2194 339.561 69.9759L339.431 69.756L329.697 52.6729C328.345 50.3 328.361 47.386 329.74 45.0287L339.667 28.0576C341.046 25.7002 343.578 24.2569 346.309 24.2723L365.97 24.3844Z" stroke="#858DE5" stroke-width="5.09644"/>
<circle cx="356" cy="40" r="4.5" stroke="#858DE5"/>
<circle cx="368" cy="56" r="3.5" stroke="#858DE5"/>
<circle cx="356" cy="56" r="3.5" stroke="#858DE5"/>
<circle cx="344" cy="56" r="3.5" stroke="#858DE5"/>
<path d="M356 45V52" stroke="#858DE5" stroke-linecap="round"/>
<path d="M343.574 52.7379C343.574 52.7379 343.302 45.4724 346 42.5C347.993 40.3041 351.574 39.7379 351.574 39.7379" stroke="#858DE5"/>
<path d="M368.426 52.7379C368.426 52.7379 368.698 45.4724 366 42.5C364.007 40.3041 360.426 39.7379 360.426 39.7379" stroke="#858DE5"/>
</svg>
